<mxfile host="app.diagrams.net" modified="2024-03-22T00:09:57.344Z" agent="Mozilla/5.0 (Macintosh; Intel Mac OS X 10.15; rv:124.0) Gecko/20100101 Firefox/124.0" version="24.0.7" etag="TO9VTWz5E3GCoYHFoT6n" type="github">
  <diagram name="Page-1" id="MmrBWc8Y66LYdV45ageM">
    <mxGraphModel>
      <root>
        <mxCell id="0" />
        <mxCell id="1" parent="0" />
      </root>
    </mxGraphModel>
  </diagram>
</mxfile>
